<?xml version="1.0" standalone="no"?>
<!DOCTYPE svg PUBLIC "-//W3C//DTD SVG 20010904//EN"
 "http://www.w3.org/TR/2001/REC-SVG-20010904/DTD/svg10.dtd">
<svg version="1.0" xmlns="http://www.w3.org/2000/svg"
 width="285.000000pt" height="372.000000pt" viewBox="0 0 285.000000 372.000000"
 preserveAspectRatio="xMidYMid meet">

<g transform="translate(0.000000,372.000000) scale(0.100000,-0.100000)"
fill="#000000" stroke="none">
<path d="M0 1860 l0 -1860 1425 0 1425 0 0 251 c0 175 -3 248 -11 244 -6 -4
-37 10 -70 30 -52 32 -62 35 -76 23 -15 -11 -16 -11 -9 7 5 15 4 17 -5 8 -14
-14 -42 -5 -32 11 4 6 0 6 -9 -2 -10 -8 -19 -9 -22 -3 -5 8 -98 44 -118 46 -3
0 -9 3 -13 7 -4 4 -14 4 -23 1 -11 -5 -13 -3 -7 7 5 9 4 11 -4 6 -6 -4 -18 -2
-26 4 -8 7 -15 10 -15 6 0 -4 -11 1 -25 10 -24 16 -27 16 -45 -1 -11 -10 -23
-15 -27 -12 -3 4 -1 7 5 7 7 0 12 6 12 13 0 8 -7 14 -15 14 -8 0 -12 -4 -9 -9
7 -11 -26 -5 -54 10 -12 7 -26 11 -30 8 -12 -7 -74 33 -67 44 10 16 -29 28
-87 25 -32 -2 -58 1 -58 6 0 5 6 9 13 10 6 0 1 5 -12 10 -18 7 -27 6 -32 -3
-6 -10 -12 -9 -26 6 -17 18 -17 18 0 13 19 -7 24 9 4 16 -9 4 -8 8 3 16 12 8
10 12 -10 19 -14 6 -26 6 -28 1 -2 -5 -13 -9 -24 -9 -21 0 -21 0 1 -19 l21
-19 -32 4 c-18 1 -37 3 -42 3 -4 1 -6 7 -3 15 7 17 -14 27 -32 16 -9 -5 -10
-10 -2 -14 20 -13 12 -27 -8 -16 -27 14 -44 13 -35 -2 4 -7 -2 -5 -13 5 -11 9
-29 17 -40 17 -12 0 -23 3 -25 8 -5 12 -79 43 -89 37 -5 -4 -9 -2 -9 3 0 5 -6
9 -14 9 -10 0 -13 -10 -11 -34 2 -25 0 -33 -10 -29 -7 2 -16 2 -20 -2 -13 -13
-76 -9 -71 5 3 7 -1 10 -9 6 -8 -3 -12 -10 -9 -15 4 -6 -3 -5 -15 1 -11 7 -21
8 -21 3 0 -5 -7 -9 -14 -9 -8 0 -14 5 -13 11 1 5 -11 11 -28 12 -16 2 -31 8
-33 14 -3 7 -10 4 -19 -7 -8 -10 -12 -12 -8 -5 4 7 0 12 -10 12 -9 0 -14 4
-11 9 4 5 -5 8 -18 7 -14 -2 -25 0 -24 3 2 22 -5 63 -9 48 -5 -21 -22 -22 -29
-2 -4 11 -20 14 -60 13 -30 -1 -54 -5 -54 -9 0 -11 -43 -19 -54 -10 -6 5 -21
7 -33 6 -13 -1 -23 2 -23 6 0 5 -7 6 -15 3 -8 -4 -12 -11 -9 -16 4 -7 0 -7
-12 0 -13 7 -30 6 -55 -2 -24 -8 -40 -9 -51 -3 -8 6 -24 7 -34 2 -22 -9 -26
-10 -76 -20 -21 -4 -38 -5 -38 -1 0 6 81 31 93 28 4 -1 7 3 7 9 0 5 3 8 8 5 4
-2 18 2 32 9 22 12 23 14 5 14 -11 0 -32 3 -47 7 -15 3 -36 3 -45 -2 -10 -4
-20 -8 -23 -9 -44 -11 -80 -29 -80 -41 0 -15 -36 -27 -66 -23 -11 1 -28 -1
-39 -6 -68 -27 -164 -70 -190 -85 -111 -64 -129 -72 -116 -56 18 22 287 153
421 204 118 46 296 96 310 87 5 -3 12 0 15 6 4 5 13 8 21 5 8 -3 14 -2 14 3 0
5 11 7 25 6 14 -2 25 1 25 6 0 5 3 8 8 7 19 -5 92 13 87 22 -6 10 15 14 43 11
8 -1 16 7 19 19 4 16 12 21 27 18 12 -3 27 1 34 8 6 7 21 11 32 9 13 -2 20 2
20 11 0 8 -4 14 -9 14 -5 0 -11 6 -14 14 -4 10 0 12 14 9 11 -3 22 -9 25 -14
7 -12 24 -11 24 2 0 5 -6 7 -12 3 -10 -6 -10 -4 0 8 7 9 23 15 35 13 21 -4 21
-4 3 10 -11 8 -15 15 -9 15 6 0 9 10 7 23 l-5 22 10 -23 c12 -26 36 -29 50 -4
6 9 10 13 10 7 0 -15 -25 -45 -32 -40 -4 3 -5 2 -2 -2 8 -11 36 -13 29 -2 -3
5 4 9 15 9 12 0 21 -5 21 -11 0 -5 5 -7 10 -4 6 3 10 1 10 -4 0 -6 8 -11 18
-11 10 0 27 -6 37 -14 10 -7 27 -11 38 -8 13 3 18 1 14 -5 -4 -6 0 -14 9 -17
8 -3 13 -2 10 2 -3 5 1 9 9 9 8 0 12 -4 9 -8 -2 -4 0 -10 6 -14 5 -3 10 -1 10
4 0 6 3 10 8 9 4 -2 7 -1 8 2 3 17 26 50 36 50 6 0 3 -9 -6 -19 -13 -15 -14
-20 -4 -24 10 -4 10 -6 1 -6 -7 -1 -13 -5 -13 -11 0 -5 7 -7 15 -4 9 4 14 11
13 18 -1 6 6 23 16 38 10 15 19 35 21 45 2 10 4 19 5 21 2 1 3 6 4 11 2 14 68
94 117 141 26 25 75 59 110 77 73 36 210 64 282 57 l46 -4 24 53 c21 46 32 58
76 80 31 15 60 23 73 19 13 -3 17 -7 10 -10 -6 -2 -12 -10 -12 -18 0 -8 -11
-26 -24 -39 -13 -13 -22 -26 -19 -28 2 -3 -6 -13 -19 -23 -30 -25 -29 -46 2
-55 14 -4 18 -8 10 -10 -8 -1 -19 -3 -25 -4 -74 -12 -188 -62 -228 -99 -12
-12 -34 -28 -49 -35 -16 -8 -28 -18 -28 -23 0 -15 -74 -78 -92 -78 -19 0 -68
-48 -68 -67 0 -6 -7 -19 -16 -27 -8 -9 -13 -16 -9 -16 3 0 -3 -13 -14 -29 -11
-15 -18 -31 -14 -35 3 -3 2 -6 -3 -6 -6 0 -10 -15 -11 -33 -1 -33 0 -34 61
-46 98 -21 312 -95 426 -148 161 -75 235 -117 358 -203 63 -44 116 -80 118
-80 2 0 4 707 4 1570 l0 1570 -1425 0 -1425 0 0 -1860z m2156 1506 c-8 -43
-21 -54 -24 -20 -2 27 16 70 25 60 3 -3 2 -21 -1 -40z m-1240 -21 c-3 -8 -10
-15 -16 -15 -14 0 -12 37 3 43 15 5 21 -8 13 -28z m1154 -53 c0 -15 -2 -15
-10 -2 -13 20 -13 33 0 25 6 -3 10 -14 10 -23z m221 -36 c-5 -12 -6 -27 -4
-33 3 -7 -1 -13 -7 -13 -11 0 -11 11 0 90 0 3 4 -1 9 -9 5 -8 6 -24 2 -35z
m-811 14 c0 -5 -4 -10 -10 -10 -5 0 -10 5 -10 10 0 6 5 10 10 10 6 0 10 -4 10
-10z m850 0 c0 -5 -4 -10 -10 -10 -5 0 -10 5 -10 10 0 6 5 10 10 10 6 0 10 -4
10 -10z m-275 -19 c-3 -6 -10 -9 -15 -6 -4 3 -8 -1 -7 -8 0 -6 -1 -21 -2 -32
-1 -17 -3 -18 -11 -5 -7 12 -10 8 -11 -15 0 -16 -3 -24 -6 -16 -8 21 18 90 36
94 20 4 25 1 16 -12z m-114 -87 c-5 -16 -10 -21 -10 -12 -1 18 10 51 15 45 2
-1 -1 -16 -5 -33z m539 16 c0 -5 -4 -10 -10 -10 -5 0 -10 5 -10 10 0 6 5 10
10 10 6 0 10 -4 10 -10z m-414 -16 c-3 -9 -9 -27 -12 -40 -3 -13 -9 -24 -13
-24 -4 0 -13 -12 -20 -26 -6 -15 -14 -24 -17 -22 -4 5 7 35 39 106 12 25 33
31 23 6z m234 1 c0 -8 -4 -15 -10 -15 -5 0 -7 7 -4 15 4 8 8 15 10 15 2 0 4
-7 4 -15z m-1232 -67 c24 -26 21 -61 -4 -51 -9 3 -14 -1 -14 -12 0 -13 -8 -16
-37 -13 -33 3 -38 6 -38 28 0 21 5 25 29 25 40 0 45 24 10 53 l-29 24 30 -15
c17 -8 40 -26 53 -39z m1207 4 c1 -17 -5 -29 -12 -29 -9 0 -10 4 -2 14 8 9 8
13 1 13 -6 0 -9 7 -6 15 10 24 19 17 19 -13z m-1505 14 c0 -2 -7 -6 -15 -10
-8 -3 -15 -1 -15 4 0 6 7 10 15 10 8 0 15 -2 15 -4z m1885 -6 c3 -5 1 -10 -4
-10 -6 0 -11 5 -11 10 0 6 2 10 4 10 3 0 8 -4 11 -10z m-2141 -40 c-6 -6 -15
-6 -24 0 -13 9 -13 11 0 20 18 11 39 -5 24 -20z m153 5 c3 -9 3 -18 1 -21 -9
-9 -38 8 -38 22 0 19 29 18 37 -1z m1477 -29 c-3 -9 -10 -13 -16 -10 -5 3 -4
12 3 20 15 18 22 13 13 -10z m-1307 -25 c-1 -12 -7 -17 -19 -13 -18 4 -24 23
-12 35 11 11 33 -4 31 -22z m923 -11 c9 -16 8 -18 -5 -14 -8 4 -15 12 -15 20
0 20 7 17 20 -6z m-1194 -28 c-22 -23 -29 -10 -9 18 11 16 18 19 21 11 2 -7
-3 -20 -12 -29z m-181 18 c3 -5 1 -10 -4 -10 -6 0 -11 5 -11 10 0 6 2 10 4 10
3 0 8 -4 11 -10z m1620 -29 c-3 -12 -11 -21 -16 -21 -6 0 -8 3 -6 8 2 4 7 16
11 26 9 25 20 13 11 -13z m210 17 c3 -3 -3 -8 -15 -11 -13 -3 -20 0 -20 8 0
13 23 15 35 3z m-605 -2 c0 -3 -4 -8 -10 -11 -5 -3 -10 -1 -10 4 0 6 5 11 10
11 6 0 10 -2 10 -4z m305 -36 c-9 -10 -18 -32 -19 -49 0 -16 -3 -28 -7 -26 -9
6 -46 -65 -54 -102 -6 -31 -89 -123 -109 -122 -10 1 -26 -21 -26 -35 0 -5 7
-3 15 4 13 11 14 10 9 -4 -4 -10 -12 -15 -19 -13 -6 3 -24 -8 -38 -23 -26 -27
-26 -28 -4 -24 12 2 16 2 10 -2 -7 -3 -13 -12 -13 -19 0 -7 -7 -15 -15 -19 -8
-3 -15 -14 -15 -24 0 -11 -6 -25 -14 -31 -11 -10 -15 -8 -18 6 -2 10 3 23 12
30 8 6 11 15 6 20 -5 4 -11 2 -13 -4 -3 -7 -11 -13 -19 -13 -8 0 -14 -4 -14
-10 0 -5 -22 -31 -50 -57 -53 -50 -60 -63 -35 -63 8 0 15 6 15 14 0 18 33 30
59 21 11 -3 25 1 34 10 21 20 33 19 68 -6 17 -11 37 -18 47 -15 19 6 81 75
142 158 19 26 38 48 43 48 18 0 4 -44 -23 -72 -16 -16 -30 -38 -30 -48 0 -10
-8 -25 -18 -32 -9 -7 -23 -26 -30 -43 -11 -26 -10 -28 1 -12 18 22 31 22 23 0
-6 -15 -4 -15 14 2 11 10 20 15 20 11 0 -11 64 67 90 109 22 36 34 46 24 21
-3 -7 2 -16 11 -20 20 -7 10 -26 -15 -26 -16 0 -30 -18 -36 -45 -6 -28 -17
-55 -23 -55 -4 0 -8 -6 -8 -13 0 -8 6 -14 14 -14 7 0 13 6 13 14 0 7 4 13 10
13 12 0 -9 -51 -28 -67 -20 -16 -6 -33 27 -33 19 0 34 -9 49 -30 26 -34 26
-37 8 -55 -11 -12 -15 -10 -26 11 -9 16 -17 21 -24 14 -16 -13 -19 -67 -4 -77
7 -4 19 -19 26 -32 12 -21 12 -23 -2 -18 -23 9 -46 -2 -39 -19 4 -10 0 -12
-13 -7 -13 5 -16 3 -11 -9 3 -9 -4 -33 -15 -54 -11 -22 -20 -40 -19 -41 5 -11
-1 -23 -9 -18 -6 4 -9 1 -8 -7 2 -7 -4 -13 -12 -13 -8 0 -22 -5 -30 -10 -8 -5
-21 -10 -27 -11 -19 -3 -40 -28 -35 -42 3 -10 7 -10 20 0 14 11 14 9 0 -8 -10
-11 -18 -27 -18 -35 1 -10 5 -8 15 5 15 19 15 19 15 -2 0 -19 2 -21 14 -10 8
7 10 15 5 16 -15 6 -10 32 6 32 13 0 19 -12 16 -32 0 -4 6 -5 14 -2 8 4 12 11
8 18 -3 6 -3 8 2 4 4 -4 15 -3 25 2 14 8 16 5 12 -15 -2 -13 -9 -23 -15 -22
-6 1 -13 -6 -15 -17 -2 -11 0 -16 6 -12 6 3 14 1 18 -5 4 -8 3 -9 -4 -5 -7 4
-12 2 -12 -3 0 -6 -4 -11 -10 -11 -5 0 -10 7 -10 16 0 14 -2 14 -15 0 -9 -8
-29 -23 -45 -32 -15 -10 -34 -28 -41 -40 -6 -13 -16 -21 -22 -17 -5 3 -8 0 -5
-8 3 -8 15 -16 29 -17 13 -2 28 -10 32 -18 11 -20 37 -17 37 4 0 10 13 25 29
35 39 23 59 22 32 -2 -22 -20 -24 -48 -6 -93 4 -11 3 -18 -5 -18 -6 0 -9 4 -6
9 3 4 -5 13 -18 19 -20 9 -25 7 -34 -14 -7 -13 -9 -30 -6 -38 6 -15 -29 -40
-56 -41 -8 0 -16 -6 -16 -12 -1 -7 -2 -19 -3 -27 -1 -14 -41 -30 -51 -20 -3 3
4 12 15 20 11 8 20 22 21 32 0 9 1 32 2 50 2 25 6 32 20 30 11 -2 17 3 16 14
-1 10 2 15 7 12 17 -10 9 13 -10 30 -18 17 -20 17 -40 -3 l-21 -21 -11 21
c-15 29 -22 17 -9 -16 8 -21 8 -31 -1 -39 -9 -8 -10 -7 -6 6 4 12 1 16 -14 15
-10 -1 -19 -5 -19 -10 0 -4 -5 -5 -12 -1 -7 4 -8 3 -4 -5 4 -7 -2 -20 -16 -32
-13 -11 -17 -17 -10 -14 11 6 11 3 1 -14 -8 -11 -16 -17 -19 -13 -9 13 -43 8
-48 -8 -4 -13 -3 -13 10 -2 24 20 30 -2 6 -22 -17 -15 -22 -16 -29 -5 -6 10
-9 11 -9 2 0 -7 -4 -13 -10 -13 -5 0 -6 7 -3 17 4 11 3 14 -5 9 -7 -4 -12 -2
-12 6 0 10 -2 10 -9 -1 -7 -11 -10 -9 -16 8 -7 24 -23 28 -31 6 -13 -33 -32
-14 -39 40 -4 34 -11 55 -19 55 -13 0 -16 14 -16 59 0 28 -19 44 -35 31 -6 -5
-17 -5 -25 0 -12 8 -12 10 3 10 10 0 15 5 12 10 -3 6 -2 10 3 10 5 0 9 6 9 13
0 6 4 20 8 30 4 10 3 17 -4 17 -6 0 -8 7 -4 16 5 13 2 15 -18 9 -20 -7 -22 -6
-12 6 8 10 9 20 2 29 -8 13 -10 13 -18 1 -11 -16 -19 5 -23 57 -1 21 -7 32
-18 32 -12 0 -12 2 -2 9 17 11 18 12 4 38 -7 12 -8 23 -3 25 16 5 17 33 1 34
-8 0 -32 5 -52 11 -46 14 -75 7 -81 -18 -4 -14 -14 -19 -39 -19 -19 0 -38 3
-42 8 -12 11 -74 9 -70 -3 6 -19 -24 -48 -45 -42 -11 3 -26 -2 -32 -10 -10
-11 -14 -11 -21 -1 -8 10 -11 10 -15 1 -8 -21 -37 -14 -56 12 -10 14 -13 25
-7 25 5 0 10 5 10 11 0 6 -6 9 -12 6 -16 -5 -48 10 -48 24 0 6 4 7 10 4 5 -3
20 -9 32 -11 13 -3 33 -8 46 -11 13 -3 22 -1 22 6 0 10 -21 16 -42 12 -13 -2
-9 16 7 29 8 6 13 17 12 22 -1 6 4 13 12 16 8 3 11 0 7 -7 -4 -6 -2 -11 3 -11
7 0 10 19 9 46 -1 38 -5 47 -25 55 -12 5 -23 13 -23 19 0 18 -30 11 -30 -7 -1
-17 -1 -17 -14 0 -7 9 -18 17 -25 17 -6 0 -11 5 -11 11 0 5 5 7 11 3 7 -4 10
3 7 18 -3 27 17 58 37 58 7 0 18 6 25 14 6 8 18 12 25 10 20 -8 27 -34 14 -50
-9 -11 -8 -14 5 -14 10 0 15 4 12 9 -3 5 1 11 9 15 18 6 41 -29 25 -39 -6 -4
-17 -4 -25 -1 -8 3 -15 0 -15 -6 0 -6 11 -8 30 -4 17 3 29 2 26 -2 -3 -5 1 -9
9 -9 8 0 15 5 15 11 0 5 7 1 16 -10 15 -18 15 -18 10 0 -5 15 -4 17 8 7 11 -9
15 -8 19 4 4 8 13 12 21 9 15 -6 16 -20 3 -41 -5 -7 -3 -21 2 -30 6 -11 11
-13 11 -5 0 7 5 10 12 6 7 -4 8 -3 4 5 -4 6 -13 9 -19 5 -7 -3 -5 0 4 8 19 16
91 148 81 148 -4 0 0 5 8 11 12 8 10 9 -7 4 -19 -5 -22 -3 -16 11 4 12 3 15
-5 10 -7 -4 -12 -2 -12 6 0 9 -3 9 -8 2 -23 -34 -78 -11 -56 23 12 19 64 25
57 7 -2 -7 4 -17 15 -23 17 -9 23 -6 41 25 13 22 19 44 15 56 -5 16 -2 19 13
14 14 -4 23 2 36 23 9 15 13 31 9 35 -4 4 -1 6 6 4 8 -2 19 13 27 35 17 50 53
102 85 121 39 24 101 86 143 144 21 28 41 52 43 52 8 0 -18 -43 -42 -69 -28
-30 -32 -51 -6 -29 9 8 26 14 38 13 13 -1 28 9 40 27 10 15 26 28 34 28 9 0
20 3 26 8 5 4 -3 -4 -18 -18 l-27 -26 27 1 c15 0 33 5 41 9 11 7 13 5 8 -7 -4
-11 -2 -14 8 -11 40 16 55 -72 23 -131 -9 -16 -25 -49 -37 -72 -11 -24 -25
-43 -30 -43 -6 0 -11 -6 -11 -14 0 -8 -7 -16 -15 -20 -9 -3 -15 -19 -15 -41 0
-20 -4 -34 -8 -31 -5 3 -9 -2 -9 -10 0 -10 4 -11 11 -4 13 13 29 13 21 0 -12
-20 14 -9 29 11 8 12 43 52 78 88 35 36 76 84 90 106 15 22 38 51 51 65 12 14
35 48 51 75 16 28 36 58 44 68 9 10 17 25 18 35 3 17 31 42 47 42 6 0 2 -9 -8
-20z m-78 -22 c-3 -8 -6 -5 -6 6 -1 11 2 17 5 13 3 -3 4 -12 1 -19z m385 0
c-6 -6 -16 -7 -22 -3 -9 6 -9 9 1 16 17 10 34 0 21 -13z m-399 -33 c-3 -9 -8
-14 -10 -11 -3 3 -2 9 2 15 9 16 15 13 8 -4z m399 3 c-9 -9 -15 -9 -24 0 -9 9
-7 12 12 12 19 0 21 -3 12 -12z m-1255 -25 c-9 -9 -19 -14 -23 -11 -10 10 6
28 24 28 15 0 15 -1 -1 -17z m1142 -30 c-11 -26 -24 -52 -29 -58 -7 -8 -4 -12
6 -12 8 0 27 17 42 38 28 40 70 63 52 29 -5 -9 -6 -20 -3 -24 3 -3 2 -6 -4 -6
-6 0 -16 -15 -24 -32 -7 -18 -30 -49 -51 -69 -21 -20 -38 -43 -38 -52 0 -10
-5 -17 -11 -17 -6 0 -17 -7 -25 -15 -9 -8 -22 -15 -31 -15 -19 0 -7 17 54 76
24 23 43 49 43 58 0 18 -15 22 -25 6 -3 -6 -17 -7 -31 -4 -25 6 -32 -4 -13
-23 8 -8 5 -14 -10 -22 -12 -7 -21 -17 -21 -24 0 -7 -11 -20 -24 -29 -22 -16
-25 -16 -30 -2 -7 18 -4 25 42 82 19 23 42 41 50 40 10 -2 17 5 19 17 1 11 0
14 -3 8 -3 -7 -10 -13 -14 -13 -12 0 9 61 26 80 17 18 19 -1 4 -33 -7 -14 1
-9 20 13 16 19 30 38 30 42 0 4 4 8 10 8 5 0 0 -21 -11 -47z m-1529 3 c0 -3
-4 -8 -10 -11 -5 -3 -10 -1 -10 4 0 6 5 11 10 11 6 0 10 -2 10 -4z m-120 -16
c0 -5 -7 -10 -16 -10 -8 0 -12 5 -9 10 3 6 10 10 16 10 5 0 9 -4 9 -10z m258
-8 c2 -7 -2 -10 -12 -6 -9 3 -16 11 -16 16 0 13 23 5 28 -10z m1072 11 c0 -5
-10 -19 -21 -33 l-20 -25 16 33 c15 30 25 41 25 25z m-1403 -25 c35 -12 63
-25 63 -29 0 -5 7 -9 15 -9 9 0 12 -6 9 -15 -10 -26 -159 -5 -266 37 -95 37
70 52 179 16z m-23 -115 c4 -10 -2 -10 -24 2 -39 20 -47 36 -10 22 16 -6 32
-17 34 -24z m376 7 c12 -8 11 -10 -7 -10 -12 0 -25 5 -28 10 -8 13 15 13 35 0z
m1390 -10 c0 -5 -5 -10 -11 -10 -5 0 -7 5 -4 10 3 6 8 10 11 10 2 0 4 -4 4
-10z m-1602 -43 c3 -16 1 -17 -17 -7 -25 13 -28 33 -4 28 10 -2 19 -11 21 -21z
m287 -83 c-3 -28 -21 -52 -31 -41 -8 8 15 67 26 67 5 0 7 -12 5 -26z m-269
-29 c17 -22 18 -61 3 -70 -5 -4 -29 6 -52 21 -23 15 -47 27 -54 27 -18 0 -16
7 7 27 26 23 78 20 96 -5z m300 -82 c-4 -5 -14 1 -22 11 -21 30 -17 39 8 16
12 -11 18 -23 14 -27z m829 17 c3 -5 1 -10 -4 -10 -6 0 -11 5 -11 10 0 6 2 10
4 10 3 0 8 -4 11 -10z m-967 -17 c-2 -10 -10 -18 -18 -18 -8 0 -16 8 -18 18
-2 12 3 17 18 17 15 0 20 -5 18 -17z m1457 -63 c-3 -5 -11 -10 -16 -10 -6 0
-7 5 -4 10 3 6 11 10 16 10 6 0 7 -4 4 -10z m-1360 -10 c3 -5 1 -10 -4 -10 -6
0 -11 5 -11 10 0 6 2 10 4 10 3 0 8 -4 11 -10z m165 -10 c0 -5 -2 -10 -4 -10
-3 0 -8 5 -11 10 -3 6 -1 10 4 10 6 0 11 -4 11 -10z m-357 -24 c3 -8 3 -17 0
-20 -9 -9 -34 15 -27 25 8 13 21 11 27 -5z m410 -21 c-3 -9 -8 -14 -10 -11 -3
3 -2 9 2 15 9 16 15 13 8 -4z m1319 -33 c8 -6 19 -8 23 -4 5 4 1 -6 -10 -23
-31 -50 -55 -67 -74 -52 -34 26 -34 57 1 81 22 16 40 15 60 -2z m-1675 -15 c6
2 14 0 17 -5 6 -10 -62 -27 -71 -18 -3 3 -3 12 1 21 4 12 11 13 23 7 10 -5 23
-7 30 -5z m1388 -67 c3 -5 1 -10 -4 -10 -6 0 -11 5 -11 10 0 6 2 10 4 10 3 0
8 -4 11 -10z m-1505 -35 c0 -8 -7 -15 -15 -15 -8 0 -15 7 -15 15 0 8 7 15 15
15 8 0 15 -7 15 -15z m30 -6 c0 -6 -4 -7 -10 -4 -5 3 -10 11 -10 16 0 6 5 7
10 4 6 -3 10 -11 10 -16z m1470 11 c0 -5 -5 -10 -11 -10 -5 0 -7 5 -4 10 3 6
8 10 11 10 2 0 4 -4 4 -10z m220 -20 c0 -5 -2 -10 -4 -10 -3 0 -8 5 -11 10 -3
6 -1 10 4 10 6 0 11 -4 11 -10z m-1700 -20 c0 -5 -5 -10 -11 -10 -5 0 -7 5 -4
10 3 6 8 10 11 10 2 0 4 -4 4 -10z m1475 -10 c-3 -5 -12 -10 -18 -10 -7 0 -6
4 3 10 19 12 23 12 15 0z m41 -55 c-6 -18 -80 -65 -101 -65 -8 0 -15 -4 -15
-10 0 -5 5 -10 10 -10 17 0 11 -19 -10 -30 -18 -9 -19 -8 -16 12 3 13 5 31 5
42 1 12 6 16 16 12 18 -6 45 2 45 15 0 15 33 48 42 43 4 -3 8 6 8 19 0 13 3
27 8 31 9 9 16 -40 8 -59z m334 45 c0 -5 -4 -10 -10 -10 -5 0 -10 5 -10 10 0
6 5 10 10 10 6 0 10 -4 10 -10z m-446 -38 c6 -10 -30 -42 -47 -42 -7 0 -4 5 5
11 10 5 15 16 12 24 -6 16 21 22 30 7z m786 -26 c-13 -13 -35 7 -25 24 5 8 11
8 21 -1 10 -8 12 -15 4 -23z m-603 -31 c-6 -19 -14 -35 -19 -35 -11 0 -1 39
14 58 16 19 17 15 5 -23z m43 21 c0 -3 -4 -8 -10 -11 -5 -3 -10 -1 -10 4 0 6
5 11 10 11 6 0 10 -2 10 -4z m-135 -52 c-12 -30 -13 -39 -3 -46 8 -5 3 -7 -14
-4 -16 3 -28 0 -28 -5 0 -5 5 -9 10 -9 16 0 12 -22 -7 -37 -13 -10 -15 -16 -5
-19 6 -3 12 -12 12 -20 0 -17 -5 -17 -29 -4 -20 10 -19 34 1 103 12 40 24 47
31 20 4 -15 5 -15 6 2 1 22 30 69 38 62 2 -3 -3 -22 -12 -43z m695 28 l23 -18
-34 0 c-19 1 -39 -5 -44 -12 -15 -18 -234 -20 -246 -1 -11 18 -11 18 62 34 97
21 212 19 239 -3z m-1821 -18 c-15 -18 -22 -13 -13 10 3 9 10 13 16 10 5 -3 4
-12 -3 -20z m1328 -11 c-27 -52 -47 -166 -35 -208 5 -17 6 -38 4 -48 -3 -14
-1 -17 12 -12 9 4 33 11 52 16 19 4 74 24 121 43 48 20 113 38 144 41 31 2 62
8 68 12 8 5 8 2 0 -9 -7 -8 -61 -40 -120 -70 -232 -120 -556 -178 -594 -107
-7 14 -4 30 11 61 23 48 24 52 10 43 -5 -3 -10 1 -10 10 0 8 6 18 14 21 8 3
17 12 20 20 3 8 2 13 -3 9 -5 -3 -16 1 -23 9 -10 9 -20 11 -31 5 -22 -13 -32
7 -13 27 9 8 16 20 16 25 0 5 5 9 11 9 8 0 8 -5 -1 -15 -19 -23 3 -18 29 6 12
12 25 18 29 14 4 -4 1 -10 -6 -12 -10 -4 -8 -11 8 -28 18 -19 20 -27 11 -44
-16 -30 -1 -26 60 14 66 42 100 75 92 88 -3 5 10 22 28 38 28 25 46 33 97 48
2 1 1 -2 -1 -6z m-365 -45 c-3 -18 -12 -39 -20 -48 -14 -13 -15 -13 -9 3 8 21
-1 21 -27 2 -11 -8 -27 -15 -35 -15 -21 1 38 45 59 45 8 0 15 9 16 20 2 32 3
36 12 31 5 -3 7 -20 4 -38z m38 22 c0 -5 -2 -10 -4 -10 -3 0 -8 5 -11 10 -3 6
-1 10 4 10 6 0 11 -4 11 -10z m-1512 -98 c2 -12 8 -22 13 -22 6 0 5 -8 -1 -20
-14 -26 -42 -25 -71 1 -13 11 -19 18 -12 14 16 -7 56 32 47 47 -4 6 -1 9 7 6
8 -3 15 -14 17 -26z m782 -5 c0 -2 -10 -12 -22 -23 l-23 -19 19 23 c18 21 26
27 26 19z m726 -66 c-7 -11 -46 -21 -46 -12 0 13 13 21 32 21 11 0 17 -4 14
-9z m-753 -26 c-16 -22 -33 -32 -33 -20 0 5 42 45 47 45 2 0 -4 -11 -14 -25z
m57 -10 c0 -3 -19 -27 -42 -53 -24 -26 -35 -41 -25 -33 11 9 17 10 17 2 0 -6
-7 -14 -16 -18 -13 -5 -13 -7 -2 -14 9 -6 4 -8 -14 -7 -16 1 -28 8 -28 15 0 7
-5 13 -11 13 -5 0 -7 5 -4 10 4 6 10 8 14 6 4 -3 8 5 8 16 2 16 -1 18 -10 9
-20 -20 -31 -12 -12 9 11 12 25 18 36 15 9 -3 32 3 51 15 36 22 38 23 38 15z
m-584 -66 c8 -6 14 -22 14 -35 0 -16 13 -32 43 -53 102 -71 163 -176 168 -286
1 -33 0 -67 -3 -75 -3 -8 -13 -36 -22 -61 -17 -46 -64 -118 -78 -119 -14 0 -9
27 7 40 8 7 15 21 15 32 0 10 4 17 9 13 5 -3 12 -1 15 4 4 5 -5 8 -19 7 -22
-3 -23 -1 -13 18 10 19 10 20 -5 7 -12 -9 -17 -10 -17 -2 0 6 7 14 15 17 8 4
15 10 15 15 0 4 -8 5 -17 2 -13 -5 -15 -2 -10 11 4 9 3 15 -2 11 -5 -3 -12 4
-16 14 -4 12 -12 18 -21 14 -10 -4 -14 2 -14 20 0 20 -6 27 -29 32 -16 3 -35
13 -42 21 -6 8 -18 14 -27 14 -12 0 -11 4 4 18 19 17 22 58 3 46 -5 -3 -12 3
-16 13 -4 10 -10 20 -14 23 -5 3 -2 18 6 34 18 35 18 31 -1 51 -14 13 -19 14
-25 3 -7 -11 -11 -10 -19 2 -5 8 -8 21 -5 28 3 7 1 11 -4 8 -4 -3 -20 8 -35
25 -15 16 -31 27 -36 24 -6 -4 -10 -1 -10 5 0 7 -7 10 -15 7 -17 -7 -27 4 -17
20 6 9 93 19 112 13 42 -13 80 -3 80 22 0 7 -5 6 -13 -1 -10 -8 -14 -7 -14 3
0 16 31 13 53 -5z m431 -20 c-9 -6 -15 -14 -12 -19 3 -5 1 -11 -5 -15 -5 -3
-10 3 -10 14 0 18 12 29 35 30 6 0 2 -4 -8 -10z m530 -121 c-3 -7 -5 -2 -5 12
0 14 2 19 5 13 2 -7 2 -19 0 -25z m-516 -18 c1 -5 2 -15 3 -22 0 -7 -11 -26
-26 -42 -26 -29 -27 -31 -12 -54 9 -14 11 -21 5 -18 -6 4 -11 3 -11 -2 0 -6
-8 -8 -19 -5 -10 3 -22 -1 -26 -8 -5 -7 -4 -10 2 -6 11 7 28 -20 24 -37 -1 -5
5 -4 13 4 13 10 16 10 16 -3 0 -10 6 -14 14 -11 8 3 17 0 22 -7 5 -8 3 -10 -5
-4 -9 5 -12 2 -9 -10 3 -20 34 -29 45 -13 4 7 1 8 -7 3 -8 -5 -11 -4 -6 3 4 6
14 8 22 5 13 -5 13 -7 2 -14 -12 -8 -4 -13 14 -10 4 0 3 -10 -2 -23 -8 -21 -5
-26 21 -36 16 -7 27 -15 25 -18 -3 -2 4 -16 15 -30 14 -18 16 -27 8 -33 -15
-9 -89 13 -161 46 -45 21 -49 25 -25 25 l28 0 -26 27 c-14 15 -25 33 -25 40 0
7 -5 13 -12 13 -6 0 -8 3 -5 7 4 3 -3 17 -15 30 -20 21 -20 24 -5 41 10 10 15
21 11 24 -3 3 20 33 52 67 31 33 52 61 47 61 -5 0 -15 -6 -22 -12 -11 -11 -11
-9 -2 10 12 23 30 30 32 12z m519 -66 c0 -14 -17 -27 -37 -30 -7 -1 -13 3 -13
8 0 7 -7 5 -17 -3 -60 -48 -86 -40 -35 11 22 21 37 28 65 27 22 -1 37 -6 37
-13z m-624 -36 c-3 -13 -5 -24 -7 -25 -2 -3 -5 -17 -8 -30 0 -4 -8 2 -17 13
-8 10 -13 13 -9 7 4 -9 1 -11 -11 -6 -15 5 -12 11 16 35 41 34 41 34 36 6z
m460 -36 c-17 -16 -18 -16 -5 5 7 12 15 20 18 17 3 -2 -3 -12 -13 -22z m-41
-1 c-3 -6 -14 -10 -23 -10 -15 1 -15 2 1 6 9 2 17 9 17 15 0 6 3 9 6 5 3 -3 3
-10 -1 -16z m-635 -455 c0 -9 -40 -13 -46 -5 -3 5 6 9 20 9 14 0 26 -2 26 -4z
m115 -56 c3 -5 4 -10 1 -10 -2 0 -12 -3 -20 -6 -12 -5 -15 -2 -10 10 7 18 20
21 29 6z m93 -2 c-5 -13 -38 -20 -38 -8 0 8 17 18 33 19 5 1 7 -4 5 -11z m185
-11 c-12 -5 -30 -6 -40 -2 -17 7 -17 8 2 15 11 4 29 5 39 2 19 -5 19 -6 -1
-15z m-362 -2 c2 1 10 -3 16 -10 10 -11 7 -13 -16 -13 -15 1 -32 -1 -37 -4 -5
-3 -17 3 -26 13 -16 17 -16 18 0 22 9 2 27 0 38 -4 12 -4 24 -6 25 -4z m236
-1 c-3 -3 -12 -4 -19 -1 -8 3 -5 6 6 6 11 1 17 -2 13 -5z m566 -27 c4 3 13 0
21 -6 8 -7 21 -9 28 -5 10 5 10 4 1 -6 -7 -7 -16 -9 -25 -4 -7 5 -24 9 -37 9
-13 0 -26 6 -29 13 -3 11 0 12 16 3 10 -6 22 -8 25 -4z m-943 -27 c0 -5 -8
-10 -17 -10 -15 0 -16 2 -3 10 19 12 20 12 20 0z m610 -54 c0 -1 -25 -2 -55
-3 -32 -1 -53 2 -50 8 4 5 15 9 25 9 10 0 22 4 25 10 4 6 16 4 31 -6 13 -9 24
-17 24 -18z m117 13 c-9 -6 -14 -16 -11 -22 5 -8 3 -8 -7 1 -16 15 -33 16 -23
0 4 -7 3 -8 -4 -4 -20 12 -13 26 12 26 14 0 28 5 31 11 4 6 10 7 13 4 4 -4 -1
-11 -11 -16z m-243 -11 c-3 -4 -11 -5 -19 -1 -21 7 -19 12 4 10 11 0 18 -5 15
-9z m-44 -28 c-8 -6 -22 -10 -30 -10 -8 0 -4 6 10 13 27 15 44 12 20 -3z m392
-2 c-7 -7 -12 -8 -12 -2 0 14 12 26 19 19 2 -3 -1 -11 -7 -17z m628 2 c8 -5
11 -12 7 -16 -4 -4 -15 0 -24 9 -18 18 -8 23 17 7z m-1950 -40 c-14 -11 -29
-20 -35 -20 -5 0 4 9 20 20 38 25 48 25 15 0z m-50 -28 c0 -4 -14 -16 -30 -26
-39 -22 -71 -56 -64 -67 3 -5 -2 -6 -10 -3 -21 8 -14 17 47 64 58 44 57 43 57
32z m2594 -138 c5 -14 4 -15 -9 -4 -17 14 -19 20 -6 20 5 0 12 -7 15 -16z"/>
<path d="M1736 2674 c-5 -14 -4 -15 9 -4 17 14 19 20 6 20 -5 0 -12 -7 -15
-16z"/>
<path d="M1466 2429 c2 -4 -2 -10 -8 -12 -8 -4 -9 -6 -2 -6 6 -1 17 5 23 12 8
10 7 14 -4 14 -8 0 -12 -4 -9 -8z"/>
<path d="M1397 2408 c-15 -5 -25 -13 -22 -18 3 -5 -3 -11 -13 -14 -18 -6 -28
-46 -11 -46 5 0 9 5 9 11 0 5 5 7 10 4 6 -3 10 1 10 9 0 9 3 15 8 15 20 -3 23
3 11 19 -13 15 -12 16 4 3 14 -11 21 -11 29 -3 19 19 -3 31 -35 20z"/>
<path d="M1660 2369 c0 -6 -7 -9 -15 -5 -8 3 -15 2 -15 -3 0 -5 9 -11 20 -14
11 -3 20 -4 20 -2 0 2 3 10 6 19 3 9 1 16 -5 16 -6 0 -11 -5 -11 -11z"/>
<path d="M1300 2343 c0 -7 -8 -13 -17 -13 -15 0 -16 -2 -3 -9 8 -6 18 -7 22
-5 4 3 6 -3 5 -13 -7 -33 -19 -53 -33 -53 -8 0 -14 -5 -14 -10 0 -6 23 2 50
16 49 26 74 47 49 42 -7 -2 -13 2 -14 7 0 6 -6 19 -12 30 -9 14 -13 16 -13 5
0 -13 -1 -13 -10 0 -6 10 -10 11 -10 3z m37 -38 c0 -8 -4 -15 -9 -15 -4 0 -8
7 -8 15 0 8 4 15 8 15 5 0 9 -7 9 -15z"/>
<path d="M1585 2298 c-16 -16 -30 -32 -31 -36 0 -4 -4 -15 -8 -24 -11 -24 4
-46 18 -27 6 8 18 14 26 14 8 0 17 10 20 23 3 13 7 22 10 21 7 -4 50 34 45 39
-3 3 -12 -1 -21 -9 -15 -12 -16 -12 -10 7 9 29 -13 26 -49 -8z"/>
<path d="M1273 2288 c-2 -16 1 -18 10 -9 7 7 8 14 1 21 -6 6 -10 2 -11 -12z"/>
<path d="M1878 2271 c-1 -5 -19 -18 -38 -28 -19 -11 -41 -30 -47 -44 -11 -21
-18 -19 -14 4 0 4 -3 7 -9 7 -5 0 -10 -7 -10 -15 0 -8 -6 -15 -13 -15 -8 0
-14 -6 -14 -13 0 -8 6 -14 13 -14 7 0 12 5 11 11 -1 6 5 11 13 11 8 0 21 4 28
8 6 5 17 5 22 2 6 -3 10 -1 10 5 0 6 10 10 23 8 13 -2 21 -9 19 -18 -3 -12 -1
-13 10 -2 11 11 10 14 -1 21 -15 10 -8 61 9 61 6 0 10 5 10 10 0 12 -17 13
-22 1z"/>
<path d="M1026 2223 c-6 -14 -5 -15 5 -6 7 7 10 15 7 18 -3 3 -9 -2 -12 -12z"/>
<path d="M1235 2230 c-3 -5 -1 -10 4 -10 6 0 11 5 11 10 0 6 -2 10 -4 10 -3 0
-8 -4 -11 -10z"/>
<path d="M1201 2221 c-8 -6 -9 -11 -3 -15 6 -3 14 -1 17 5 9 14 2 20 -14 10z"/>
<path d="M1662 2210 c-5 -9 -7 -23 -2 -30 6 -9 12 -5 23 17 12 23 13 30 3 30
-7 0 -18 -8 -24 -17z"/>
<path d="M1236 2195 c4 -8 7 -15 9 -15 2 0 5 7 9 15 3 9 0 15 -9 15 -9 0 -12
-6 -9 -15z"/>
<path d="M1270 2199 c0 -5 5 -7 10 -4 6 3 10 8 10 11 0 2 -4 4 -10 4 -5 0 -10
-5 -10 -11z"/>
<path d="M1848 2153 c7 -3 16 -2 19 1 4 3 -2 6 -13 5 -11 0 -14 -3 -6 -6z"/>
<path d="M1714 2142 c4 -7 2 -12 -3 -12 -6 0 -11 -4 -11 -10 0 -15 17 -12 23
5 4 8 1 17 -5 21 -7 4 -8 3 -4 -4z"/>
<path d="M1839 2103 c-9 -10 -8 -13 2 -13 10 -1 9 -4 -3 -14 -10 -7 -15 -16
-11 -19 3 -4 1 -7 -5 -7 -7 0 -12 10 -12 23 0 17 -2 19 -10 7 -5 -8 -5 -21 0
-29 5 -9 2 -24 -7 -38 -8 -12 -13 -28 -10 -35 4 -8 6 -6 6 5 1 9 8 17 16 17
19 0 19 -9 -2 -32 -24 -27 3 -23 33 5 21 20 23 25 10 42 -12 17 -11 21 8 38
11 10 15 16 9 12 -17 -8 -16 6 1 31 13 18 13 21 0 21 -8 0 -19 -6 -25 -14z"/>
<path d="M886 2064 c-18 -18 -20 -30 -7 -39 5 -3 13 5 17 17 4 13 12 26 18 30
8 6 8 8 -1 8 -6 0 -19 -7 -27 -16z"/>
<path d="M830 2040 c-8 -5 -12 -11 -9 -14 2 -3 11 -1 19 4 8 5 12 11 9 14 -2
3 -11 1 -19 -4z"/>
<path d="M1704 1818 c-12 -14 -13 -18 -3 -10 9 6 18 10 21 7 2 -3 5 2 5 10 0
19 0 19 -23 -7z"/>
<path d="M1354 1668 c6 -20 -10 -25 -17 -5 -3 6 -6 2 -6 -10 -1 -17 5 -23 19
-23 22 0 26 17 9 40 -9 13 -10 12 -5 -2z"/>
<path d="M1455 1620 c-3 -5 -1 -10 4 -10 6 0 11 5 11 10 0 6 -2 10 -4 10 -3 0
-8 -4 -11 -10z"/>
<path d="M1530 1561 c0 -5 -8 -12 -17 -14 -14 -4 -12 -5 5 -6 13 -1 22 5 22
14 0 8 -2 15 -5 15 -3 0 -5 -4 -5 -9z"/>
<path d="M1940 1862 c0 -4 9 -13 21 -20 19 -12 19 -11 9 8 -10 19 -30 28 -30
12z"/>
<path d="M2091 1784 c-12 -15 -21 -35 -21 -46 0 -29 33 -38 123 -30 24 3 21
15 -5 27 -13 6 -32 24 -43 42 -11 18 -23 32 -27 33 -4 0 -16 -12 -27 -26z"/>
<path d="M531 1621 c-8 -5 -9 -11 -3 -15 5 -3 12 1 16 9 6 17 6 18 -13 6z"/>
<path d="M756 1353 c-6 -14 -5 -15 5 -6 7 7 10 15 7 18 -3 3 -9 -2 -12 -12z"/>
<path d="M1650 1120 c-13 -8 -13 -10 2 -10 9 0 20 5 23 10 8 13 -5 13 -25 0z"/>
<path d="M1700 1120 c-8 -5 -12 -12 -9 -15 4 -3 12 1 19 10 14 17 11 19 -10 5z"/>
<path d="M1220 1110 c0 -5 5 -10 11 -10 5 0 7 5 4 10 -3 6 -8 10 -11 10 -2 0
-4 -4 -4 -10z"/>
<path d="M1148 973 c6 -2 18 -2 25 0 6 3 1 5 -13 5 -14 0 -19 -2 -12 -5z"/>
<path d="M1834 961 c9 -10 16 -22 16 -28 0 -6 6 -14 13 -17 9 -5 9 -7 -1 -12
-6 -3 -10 -10 -7 -14 3 -5 -7 -8 -21 -7 -15 1 -29 -4 -31 -11 -4 -9 6 -12 35
-11 23 2 39 6 36 11 -3 4 2 8 12 8 13 0 14 3 5 13 -8 10 -7 14 4 14 8 0 15 -3
15 -7 0 -4 14 -5 30 -2 17 2 30 7 30 11 0 13 -67 50 -108 60 -41 9 -43 8 -28
-8z"/>
<path d="M1030 940 c0 -5 7 -10 15 -10 8 0 15 5 15 10 0 6 -7 10 -15 10 -8 0
-15 -4 -15 -10z"/>
<path d="M1932 878 c3 -7 20 -18 39 -25 l34 -14 -28 26 c-30 27 -51 33 -45 13z"/>
</g>
</svg>
